<svg xmlns="http://www.w3.org/2000/svg" viewBox="0 0 512 512" enable-background="new 0 0 512 512"><path fill="#C9E3F7" d="M478.33 287.32l-67.48 37.46-24.2-13.98 24.57-12.15-15.84-32.02-45.92 22.7-29.97-17.3c1.3-5.13 2-10.5 2-16.03s-.7-10.9-2-16.04l29.96-17.3 45.92 22.7 15.84-32-24.58-12.16 24.2-13.98 67.5 37.46 17.32-31.23-48.73-27.06 39.7-22.93-17.86-30.94-39.7 22.93.93-55.74-35.7-.6-1.3 77.17-24.22 13.97 1.76-27.36-35.64-2.3-3.3 51.13-30 17.33C293.9 201.6 284.42 196 273.85 193v-34.6l42.63-28.42-19.83-29.72-22.8 15.2V87.5l66.17-39.7-18.38-30.63-47.8 28.68V0h-35.72v45.85l-47.8-28.68-18.38 30.63 66.18 39.7v27.96l-22.8-15.2-19.83 29.72 42.64 28.42V193c-10.57 3-20.06 8.6-27.73 16.05l-30-17.32-3.3-51.13-35.64 2.3 1.76 27.36-24.2-13.97-1.3-77.18-35.72.6.94 55.74-39.7-22.93-17.87 30.94 39.7 22.92-48.73 27.05 17.34 31.23 67.47-37.46 24.22 13.98-24.58 12.15 15.82 32.02 45.92-22.7 29.97 17.3c-1.3 5.13-2 10.5-2 16.03s.7 10.9 2 16.03l-29.96 17.3-45.92-22.7-15.83 32.02 24.57 12.15-24.22 13.98-67.48-37.46-17.33 31.23 48.73 27.06-39.7 22.93 17.86 30.94 39.7-22.93-.93 55.74 35.7.6 1.3-77.17 24.22-13.97-1.76 27.37 35.64 2.3 3.3-51.13 30-17.32c7.68 7.45 17.17 13.04 27.74 16.04v34.6l-42.63 28.42 19.82 29.72 22.82-15.2v27.95l-66.18 39.7 18.38 30.63 47.8-28.68V512h35.72v-45.85l47.8 28.68 18.38-30.63-66.18-39.7v-27.96l22.8 15.2 19.83-29.72-42.64-28.42V319c10.57-3 20.06-8.6 27.73-16.05l30 17.32 3.3 51.13 35.64-2.3-1.76-27.37 24.2 13.98 1.3 77.18 35.72-.6-.94-55.74 39.7 22.93 17.87-30.94-39.7-22.92 48.73-27.05-17.33-31.23zM256 285.77c-16.4 0-29.77-13.36-29.77-29.77s13.36-29.77 29.77-29.77 29.77 13.36 29.77 29.77-13.36 29.77-29.77 29.77z"/><path fill="#AED5F3" d="M478.33 287.32l-67.48 37.46-24.2-13.98 24.57-12.15-15.84-32.02-45.92 22.7-29.97-17.3c1.3-5.13 2-10.5 2-16.03s-.7-10.9-2-16.04l29.96-17.3 45.92 22.7 15.84-32-24.58-12.16 24.2-13.98 67.5 37.46 17.32-31.23-48.73-27.06 39.7-22.93-17.86-30.94-39.7 22.93.93-55.74-35.7-.6-1.3 77.17-24.22 13.97 1.76-27.37-35.64-2.3-3.3 51.13-30 17.33C293.9 201.6 284.42 196 273.85 193v-34.6l42.63-28.42-19.83-29.72-22.8 15.2V87.52l66.17-39.7-18.38-30.63-47.8 28.68V0H256v226.23c16.4 0 29.77 13.36 29.77 29.77S272.4 285.77 256 285.77V512h17.86v-45.85l47.8 28.68 18.38-30.63-66.18-39.7v-27.96l22.8 15.2 19.83-29.72-42.64-28.42V319c10.57-3 20.06-8.6 27.73-16.05l30 17.32 3.3 51.13 35.64-2.3-1.76-27.37 24.2 13.98 1.3 77.18 35.72-.6-.94-55.74 39.7 22.93 17.87-30.94-39.7-22.92 48.73-27.05-17.33-31.23z"/></svg>
