<svg xmlns="http://www.w3.org/2000/svg" viewBox="0 0 512 512" enable-background="new 0 0 512 512"><path d="M478.326 287.32l-67.478 37.458-24.212-13.979 24.58-12.153-15.833-32.02-45.925 22.709-29.963-17.3c1.298-5.133 1.993-10.503 1.993-16.035s-.695-10.902-1.993-16.035l29.963-17.3 45.925 22.709 15.833-32.02-24.58-12.153 24.212-13.979 67.478 37.458 17.338-31.231-48.739-27.056 39.707-22.924-17.86-30.934-39.707 22.924.938-55.737-35.716-.6-1.298 77.167-24.212 13.979 1.765-27.362-35.647-2.299-3.297 51.126-30.004 17.323c-7.675-7.455-17.163-13.044-27.733-16.046v-34.611l42.628-28.42-19.814-29.723-22.814 15.209v-27.957l66.179-39.707-18.379-30.631-47.801 28.68v-45.85h-35.72v45.85l-47.801-28.68-18.378 30.631 66.179 39.707v27.956l-22.814-15.209-19.814 29.721 42.628 28.42v34.611c-10.57 3.002-20.057 8.591-27.733 16.046l-30.004-17.323-3.297-51.126-35.647 2.299 1.765 27.362-24.212-13.979-1.298-77.167-35.716.6.938 55.737-39.707-22.923-17.86 30.934 39.707 22.925-48.739 27.057 17.338 31.231 67.478-37.458 24.212 13.979-24.58 12.153 15.833 32.02 45.925-22.709 29.963 17.3c-1.298 5.133-1.993 10.503-1.993 16.035s.695 10.902 1.993 16.035l-29.963 17.3-45.925-22.709-15.833 32.02 24.58 12.153-24.212 13.979-67.479-37.458-17.338 31.231 48.739 27.056-39.707 22.926 17.86 30.934 39.707-22.924-.938 55.737 35.716.6 1.298-77.167 24.212-13.979-1.765 27.362 35.647 2.299 3.297-51.126 30.004-17.323c7.675 7.455 17.163 13.044 27.733 16.046v34.611l-42.628 28.42 19.814 29.721 22.814-15.208v27.956l-66.179 39.707 18.378 30.631 47.801-28.68v45.85h35.721v-45.85l47.801 28.68 18.378-30.631-66.179-39.707v-27.956l22.814 15.209 19.814-29.721-42.628-28.42v-34.611c10.57-3.002 20.057-8.591 27.733-16.046l30.004 17.323 3.297 51.126 35.647-2.299-1.765-27.362 24.212 13.979 1.298 77.167 35.716-.6-.938-55.737 39.707 22.924 17.86-30.934-39.707-22.924 48.739-27.056-17.337-31.234zm-222.326-1.553c-16.414 0-29.767-13.354-29.767-29.767s13.354-29.767 29.767-29.767 29.767 13.354 29.767 29.767-13.353 29.767-29.767 29.767z" fill="#C9E3F7"/><path d="M478.326 287.32l-67.478 37.458-24.212-13.979 24.58-12.153-15.833-32.02-45.925 22.709-29.963-17.3c1.298-5.133 1.993-10.503 1.993-16.035s-.695-10.902-1.993-16.035l29.963-17.3 45.925 22.709 15.833-32.02-24.58-12.153 24.212-13.979 67.478 37.458 17.338-31.231-48.739-27.056 39.707-22.924-17.86-30.934-39.707 22.924.938-55.737-35.716-.6-1.298 77.166-24.212 13.979 1.765-27.362-35.647-2.299-3.297 51.126-30.004 17.323c-7.675-7.455-17.163-13.044-27.733-16.046v-34.611l42.628-28.42-19.814-29.722-22.814 15.209v-27.957l66.179-39.707-18.379-30.631-47.801 28.68v-45.85h-17.86v226.233c16.414 0 29.767 13.354 29.767 29.767s-13.353 29.767-29.767 29.767v226.233h17.86v-45.85l47.801 28.68 18.378-30.631-66.179-39.707v-27.956l22.814 15.209 19.814-29.721-42.628-28.42v-34.611c10.57-3.002 20.057-8.591 27.733-16.046l30.004 17.323 3.297 51.126 35.647-2.299-1.765-27.362 24.212 13.979 1.298 77.167 35.716-.6-.938-55.737 39.707 22.924 17.86-30.934-39.707-22.924 48.739-27.056-17.337-31.234z" fill="#AED5F3"/></svg>